<svg width="228" height="25" viewBox="0 0 228 25" fill="none" xmlns="http://www.w3.org/2000/svg">
<path d="M11.7281 24.7006C9.44135 24.7006 7.47823 24.2026 5.83897 23.2059C4.19944 22.2095 2.9376 20.819 2.05329 19.0337C1.16858 17.2489 0.726562 15.1849 0.726562 12.8411C0.726562 10.4973 1.16858 8.42831 2.05329 6.63227C2.9376 4.83664 4.19944 3.43486 5.83897 2.42721C7.47823 1.42012 9.44135 0.916016 11.7281 0.916016C14.446 0.916016 16.6731 1.60082 18.4099 2.96931C19.8996 4.14393 20.909 5.72544 21.4385 7.71397C21.5755 8.22903 21.1851 8.73466 20.6596 8.73466H17.7086C17.3665 8.73466 17.0567 8.51624 16.95 8.18604C16.6301 7.19573 16.0813 6.39859 15.3037 5.7945C14.3864 5.08307 13.1731 4.7268 11.6634 4.7268C9.57084 4.7268 7.93117 5.4496 6.745 6.89507C5.55841 8.34053 4.96546 10.3228 4.96546 12.8411C4.96546 15.3594 5.55841 17.3367 6.745 18.7709C7.93117 20.2056 9.57084 20.9227 11.6634 20.9227C13.1731 20.9227 14.3864 20.589 15.3037 19.9207C16.0769 19.3573 16.624 18.6103 16.9445 17.6802C17.0559 17.3572 17.3612 17.1448 17.6983 17.1448H20.6479C21.1769 17.1448 21.5701 17.6572 21.4237 18.1734C20.8906 20.0532 19.8859 21.5612 18.4099 22.6967C16.6731 24.0327 14.446 24.7006 11.7281 24.7006Z" fill="white"/>
<path d="M24.0254 23.4896V2.12556C24.0254 1.67499 24.3852 1.30957 24.8291 1.30957H27.3636C27.8074 1.30957 28.1672 1.67499 28.1672 2.12556V23.4898C28.1672 23.9405 27.8074 24.3058 27.3636 24.3058H24.8291C24.3852 24.3058 24.0254 23.9405 24.0254 23.4898" fill="white"/>
<path d="M36.5462 23.4898V5.50922C36.5462 5.05865 36.1864 4.69336 35.7425 4.69336H30.749C30.3051 4.69336 29.9453 4.32794 29.9453 3.87737V2.12556C29.9453 1.67499 30.3051 1.30957 30.749 1.30957H46.5176C46.9614 1.30957 47.3212 1.67499 47.3212 2.12556V3.87737C47.3212 4.32794 46.9614 4.69336 46.5176 4.69336H41.4917C41.0479 4.69336 40.688 5.05865 40.688 5.50922V23.4898C40.688 23.9405 40.3282 24.3058 39.8844 24.3058H37.3499C36.906 24.3058 36.5462 23.9405 36.5462 23.4898Z" fill="white"/>
<path d="M49.1016 23.4896V2.12556C49.1016 1.67499 49.4613 1.30957 49.9053 1.30957H52.4396C52.8836 1.30957 53.2433 1.67499 53.2433 2.12556V23.4898C53.2433 23.9405 52.8836 24.3058 52.4396 24.3058H49.9053C49.4613 24.3058 49.1016 23.9405 49.1016 23.4898" fill="white"/>
<path d="M55.6699 23.4898V21.3283C55.6699 21.1704 55.7151 21.0159 55.8 20.8834L65.281 6.08557C65.6288 5.54278 65.2451 4.82469 64.6074 4.82469H56.5706C56.1267 4.82469 55.7669 4.45941 55.7669 4.0087V2.12556C55.7669 1.67499 56.1267 1.30957 56.5706 1.30957H70.0741C70.518 1.30957 70.8778 1.67499 70.8778 2.12556V4.28578C70.8778 4.44457 70.8322 4.59975 70.7465 4.73261L61.2082 19.5278C60.8583 20.0705 61.2418 20.7906 61.8807 20.7906H70.1388C70.5828 20.7906 70.9425 21.1559 70.9425 21.6065V23.4898C70.9425 23.9405 70.5828 24.3058 70.1388 24.3058H56.4736C56.0297 24.3058 55.6699 23.9405 55.6699 23.4898Z" fill="white"/>
<path d="M73.3672 23.4896V2.12556C73.3672 1.67499 73.727 1.30957 74.1709 1.30957H87.3509C87.7947 1.30957 88.1545 1.67499 88.1545 2.12556V3.87737C88.1545 4.32794 87.7947 4.69336 87.3509 4.69336H78.3127C77.8689 4.69336 77.509 5.05865 77.509 5.50922V10.1848C77.509 10.6355 77.8689 11.0008 78.3127 11.0008H86.38C86.8239 11.0008 87.1837 11.3661 87.1837 11.8168V13.47C87.1837 13.9207 86.8239 14.286 86.38 14.286H78.3127C77.8689 14.286 77.509 14.6513 77.509 15.102V20.1061C77.509 20.5567 77.8689 20.922 78.3127 20.922H87.3509C87.7947 20.922 88.1545 21.2874 88.1545 21.738V23.4898C88.1545 23.9405 87.7947 24.3058 87.3509 24.3058H74.1709C73.727 24.3058 73.3672 23.9405 73.3672 23.4898" fill="white"/>
<path d="M90.7754 23.4896V2.12556C90.7754 1.67499 91.1352 1.30957 91.5791 1.30957H94.4873C94.7559 1.30957 95.0068 1.44589 95.1558 1.67263L104.09 15.2658C104.532 15.9371 105.563 15.62 105.563 14.8128V2.12556C105.563 1.67499 105.922 1.30957 106.366 1.30957H108.901C109.345 1.30957 109.704 1.67499 109.704 2.12556V23.4898C109.704 23.9405 109.345 24.3058 108.901 24.3058H105.992C105.724 24.3058 105.473 24.1699 105.324 23.9434L96.389 10.3773C95.9472 9.70665 94.9172 10.0241 94.9172 10.8308V23.4898C94.9172 23.9405 94.5574 24.3058 94.1135 24.3058H91.5791C91.1352 24.3058 90.7754 23.9405 90.7754 23.4898" fill="white"/>
<path d="M129.296 24.4848C127.01 24.4848 125.047 23.9868 123.407 22.9901C121.768 21.9937 120.506 20.6031 119.622 18.8179C118.737 17.0331 118.295 14.9691 118.295 12.6253C118.295 10.2815 118.737 8.21249 119.622 6.41645C120.506 4.62082 121.768 3.21904 123.407 2.21139C125.047 1.2043 127.01 0.700195 129.296 0.700195C132.014 0.700195 134.241 1.385 135.978 2.75335C137.468 3.92811 138.477 5.50962 139.007 7.49815C139.144 8.01321 138.753 8.51884 138.228 8.51884H135.277C134.935 8.51884 134.625 8.30042 134.518 7.97022C134.198 6.97991 133.65 6.18277 132.872 5.57868C131.955 4.86725 130.741 4.51098 129.232 4.51098C127.139 4.51098 125.5 5.23378 124.313 6.67925C123.127 8.12471 122.534 10.107 122.534 12.6253C122.534 15.1436 123.127 17.1209 124.313 18.5551C125.5 19.9898 127.139 20.7069 129.232 20.7069C130.741 20.7069 131.955 20.3732 132.872 19.7049C133.645 19.1415 134.192 18.3945 134.513 17.4644C134.624 17.1414 134.93 16.9289 135.267 16.9289H138.216C138.745 16.9289 139.138 17.4414 138.992 17.9575C138.459 19.8373 137.454 21.3454 135.978 22.4809C134.241 23.8169 132.014 24.4848 129.296 24.4848Z" fill="white"/>
<path d="M166.688 23.274V1.90974C166.688 1.45903 167.047 1.09375 167.491 1.09375H176.894C179.547 1.09375 181.731 1.57012 183.446 2.52271C185.161 3.47544 186.433 4.81162 187.264 6.5307C188.094 8.25033 188.51 10.2706 188.51 12.5919C188.51 14.9131 188.094 16.9339 187.264 18.653C186.433 20.3725 185.161 21.7081 183.446 22.6609C181.731 23.6134 179.547 24.0898 176.894 24.0898H167.491C167.047 24.0898 166.688 23.7245 166.688 23.274ZM170.829 19.6602C170.829 20.1108 171.189 20.4762 171.633 20.4762H176.7C178.597 20.4762 180.097 20.1641 181.197 19.54C182.297 18.9158 183.084 18.018 183.559 16.8461C184.033 15.6747 184.271 14.2564 184.271 12.5919C184.271 10.9492 184.033 9.53659 183.559 8.35393C183.084 7.17126 182.297 6.26277 181.197 5.62734C180.097 4.99232 178.597 4.67461 176.7 4.67461H171.633C171.189 4.67461 170.829 5.03989 170.829 5.49046V19.6602Z" fill="white"/>
<path d="M190.936 23.274V1.90974C190.936 1.45903 191.295 1.09375 191.739 1.09375H204.919C205.363 1.09375 205.723 1.45903 205.723 1.90974V3.66155C205.723 4.11212 205.363 4.47754 204.919 4.47754H195.881C195.437 4.47754 195.077 4.84282 195.077 5.2934V9.96899C195.077 10.4197 195.437 10.785 195.881 10.785H203.949C204.392 10.785 204.752 11.1503 204.752 11.601V13.2542C204.752 13.7049 204.392 14.0702 203.949 14.0702H195.881C195.437 14.0702 195.077 14.4355 195.077 14.8862V19.8903C195.077 20.3409 195.437 20.7062 195.881 20.7062H204.919C205.363 20.7062 205.723 21.0714 205.723 21.5222V23.274C205.723 23.7245 205.363 24.0899 204.919 24.0899H191.739C191.295 24.0899 190.936 23.7245 190.936 23.274Z" fill="white"/>
<path d="M208.544 22.8446L214.924 12.8975C215.095 12.6304 215.092 12.292 214.916 12.0277L208.479 2.35019C208.118 1.80726 208.522 1.09375 209.191 1.09375H212.188C212.476 1.09375 212.744 1.23479 212.9 1.46819L217.254 7.99641C217.595 8.50717 218.374 8.49274 218.694 7.96964L222.656 1.49495C222.808 1.2463 223.085 1.09375 223.384 1.09375H226.283C226.947 1.09375 227.352 1.79713 227.001 2.34062L220.63 12.2189C220.457 12.4867 220.46 12.8265 220.637 13.0917L227.137 22.8323C227.499 23.3752 227.095 24.0898 226.425 24.0898H223.431C223.143 24.0898 222.875 23.9488 222.72 23.7155L218.301 17.0948C217.959 16.5825 217.177 16.5991 216.859 17.1254L212.895 23.6849C212.743 23.9356 212.465 24.0898 212.164 24.0898H209.263C208.601 24.0898 208.195 23.3882 208.544 22.8446Z" fill="white"/>
<path d="M157.305 5.95806C157.305 7.29355 158.371 8.37609 159.686 8.37609C161.002 8.37609 162.068 7.29355 162.068 5.95806C162.068 4.62258 161.002 3.54004 159.686 3.54004C158.371 3.54004 157.305 4.62258 157.305 5.95806Z" fill="white"/>
<path d="M152.858 24.6196C152.649 24.6196 152.437 24.6139 152.227 24.6025C149.383 24.4487 146.697 23.2271 144.663 21.1624C142.63 19.0977 141.426 16.3705 141.275 13.4831C141.111 10.361 142.146 7.35696 144.189 5.02408C146.215 2.71118 148.996 1.31592 152.018 1.09528C152.033 1.0943 152.047 1.09375 152.062 1.09375C152.391 1.09375 152.659 1.36653 152.659 1.70186V4.45716C152.659 4.77085 152.425 5.03032 152.114 5.06069C150.119 5.25568 148.301 6.22172 146.994 7.78076C145.671 9.35839 145.027 11.369 145.18 13.4422C145.462 17.2579 148.509 20.3511 152.267 20.6374C152.464 20.6523 152.662 20.66 152.858 20.66C154.782 20.66 156.625 19.9329 158.048 18.6129C159.461 17.3016 160.34 15.5205 160.522 13.5976C160.552 13.2821 160.808 13.0439 161.117 13.0439H163.831C163.999 13.0439 164.154 13.1129 164.269 13.238C164.384 13.3629 164.44 13.5253 164.428 13.6952C163.994 19.8211 158.912 24.6196 152.858 24.6196Z" fill="white"/>
<path d="M153.657 18.0015C153.326 18.0015 153.056 17.7293 153.056 17.3945V14.5361C153.056 14.3049 153.193 14.0923 153.412 13.9813C153.842 13.7644 154.115 13.3104 154.108 12.8245C154.098 12.1448 153.545 11.5838 152.876 11.5743H152.858C152.379 11.5741 151.95 11.8446 151.737 12.28C151.627 12.5031 151.418 12.6418 151.19 12.6418H148.375C148.198 12.6418 148.032 12.5629 147.918 12.4253C147.803 12.2856 147.755 12.1017 147.787 11.9211C148.226 9.42556 150.359 7.61426 152.857 7.61426C152.979 7.61426 153.103 7.6187 153.226 7.62743C155.767 7.80772 157.817 9.88944 157.995 12.4697C158.179 15.1468 156.361 17.5209 153.766 17.9917C153.73 17.9982 153.693 18.0015 153.657 18.0015Z" fill="white"/>
</svg>
